<?xml version="1.0" standalone="no"?>
<svg xmlns:xlink="http://www.w3.org/1999/xlink" id="wave" style="transform:rotate(180deg); transition: 0.3s" viewBox="0 0 1440 100" version="1.1" xmlns="http://www.w3.org/2000/svg"><defs><linearGradient id="sw-gradient-0" x1="0" x2="0" y1="1" y2="0"><stop stop-color="rgba(241, 250, 218, 1)" offset="0%"/><stop stop-color="rgba(241, 250, 218, 1)" offset="100%"/></linearGradient></defs><path style="transform:translate(0, 0px); opacity:1" fill="url(#sw-gradient-0)" d="M0,30L60,25C120,20,240,10,360,8.3C480,7,600,13,720,26.7C840,40,960,60,1080,56.7C1200,53,1320,27,1440,28.3C1560,30,1680,60,1800,66.7C1920,73,2040,57,2160,41.7C2280,27,2400,13,2520,8.3C2640,3,2760,7,2880,15C3000,23,3120,37,3240,35C3360,33,3480,17,3600,13.3C3720,10,3840,20,3960,31.7C4080,43,4200,57,4320,51.7C4440,47,4560,23,4680,16.7C4800,10,4920,20,5040,35C5160,50,5280,70,5400,76.7C5520,83,5640,77,5760,73.3C5880,70,6000,70,6120,73.3C6240,77,6360,83,6480,83.3C6600,83,6720,77,6840,66.7C6960,57,7080,43,7200,40C7320,37,7440,43,7560,51.7C7680,60,7800,70,7920,65C8040,60,8160,40,8280,41.7C8400,43,8520,67,8580,78.3L8640,90L8640,100L8580,100C8520,100,8400,100,8280,100C8160,100,8040,100,7920,100C7800,100,7680,100,7560,100C7440,100,7320,100,7200,100C7080,100,6960,100,6840,100C6720,100,6600,100,6480,100C6360,100,6240,100,6120,100C6000,100,5880,100,5760,100C5640,100,5520,100,5400,100C5280,100,5160,100,5040,100C4920,100,4800,100,4680,100C4560,100,4440,100,4320,100C4200,100,4080,100,3960,100C3840,100,3720,100,3600,100C3480,100,3360,100,3240,100C3120,100,3000,100,2880,100C2760,100,2640,100,2520,100C2400,100,2280,100,2160,100C2040,100,1920,100,1800,100C1680,100,1560,100,1440,100C1320,100,1200,100,1080,100C960,100,840,100,720,100C600,100,480,100,360,100C240,100,120,100,60,100L0,100Z"/></svg>